<svg width="48" height="56" viewBox="0 0 48 56" fill="none" xmlns="http://www.w3.org/2000/svg">
<path fill-rule="evenodd" clip-rule="evenodd" d="M32.6141 4.57664C32.8529 2.44299 31.3403 0.516338 29.2066 0.277497C27.073 0.0227336 25.1463 1.55132 24.9075 3.68496C24.6209 6.12114 25.0189 9.035 25.5285 12.0285C26.9456 12.4584 28.315 13.0794 29.5888 13.8118C30.9581 10.5795 32.2956 7.37904 32.6141 4.57664ZM47.5974 13.9392C46.7535 11.9648 44.4606 11.0731 42.4862 11.917C39.8908 13.0475 37.1998 15.2608 34.493 17.5377C35.512 18.5409 36.4674 19.6714 37.2795 20.8974C40.3525 20.5153 43.2982 20.0535 45.5752 19.0663C47.5496 18.1906 48.4572 15.8977 47.5974 13.9392ZM41.0531 3.52574C39.3335 2.25192 36.8973 2.60222 35.6235 4.32187C33.6809 6.9332 32.3752 10.8343 30.9581 14.6398C31.4358 14.9583 31.8816 15.2767 32.3116 15.6111C32.63 15.8659 32.9644 16.1365 33.2988 16.4072C36.547 13.9551 39.9226 11.5667 41.8652 8.95539C43.139 7.23573 42.7728 4.79955 41.0531 3.52574Z" fill="#53B175"/>
<path d="M33.6651 34.7025C32.4709 35.9922 31.1971 37.1864 29.8436 38.3488C27.9488 39.9888 26.0222 41.5811 24.0637 43.1097C21.9619 41.82 20.4492 41.1671 20.1945 41.5015C19.9715 41.804 20.8473 42.9186 22.4236 44.3676C17.1373 48.3005 11.5484 51.7717 5.54554 54.6218C4.6061 55.0677 3.61889 55.3861 2.6476 55.7364C2.39284 55.832 2.12215 55.832 2.0107 55.8479C0.482113 56.023 0.0203531 55.609 0.084044 54.2078C0.275117 49.845 1.62855 45.7529 3.02975 41.6767C3.4119 40.5621 3.80996 39.4475 4.22396 38.3329C6.34168 39.6226 7.85434 40.2914 8.1091 39.957C8.37979 39.5908 7.10597 38.1259 4.97232 36.2948C6.50091 32.3459 8.20464 28.4608 10.2109 24.7349C14.2234 27.7124 17.7901 29.6709 18.1882 29.1295C18.5863 28.5882 15.6406 25.7061 11.5803 22.6967L11.4051 22.5694C12.1057 21.3752 12.8382 20.181 13.6184 19.0186C14.5897 17.5537 15.7839 16.2162 16.9621 14.9105C18.5385 13.175 20.5766 12.5858 22.8536 13.0953C30.1462 14.7195 35.2096 18.9071 37.598 26.0883C38.0757 27.5532 37.6458 28.9862 36.8974 30.3078C36.3879 31.1995 35.8306 32.0434 35.2096 32.8395C31.3563 30.0212 28.0125 28.206 27.6304 28.7155C27.2642 29.2251 29.9233 31.8523 33.6651 34.7025Z" fill="#F3603F"/>
</svg>
